<?xml version="1.0" encoding="UTF-8"?>
<svg width="256" height="256" viewBox="0 0 256 256" xmlns="http://www.w3.org/2000/svg">
  <g fill="#FF9900">
    <path d="M80.767 205.1c-30.418 22.443-74.559 34.392-112.545 34.392-53.243 0-101.192-19.66-137.534-52.34-2.852-2.589-.263-6.11 3.121-4.099 39.087 22.765 87.405 36.477 137.331 36.477 33.677 0 70.668-6.976 104.731-21.443 5.133-2.18 9.448 3.373 4.896 7.013z"/>
    <path d="M92.243 191.793c-3.884-4.978-25.734-2.37-35.569-1.193-2.973.358-3.437-2.254-.753-4.137 17.404-12.245 45.944-8.707 49.267-4.606 3.328 4.121-.86 32.726-17.146 46.382-2.501 2.097-4.887.982-3.778-1.798 3.67-9.173 11.858-29.699 7.979-34.648z"/>
  </g>
  <path d="M139.023 50.583V38.818c0-2.559 1.94-4.251 4.257-4.251h75.373c2.412 0 4.352 1.73 4.352 4.251v10.046c-.037 2.414-2.055 5.561-5.637 10.548l-39.054 55.777c14.504-.347 29.813 1.87 42.99 9.3 2.96 1.653 3.752 4.1 3.978 6.492v13.15c0 2.425-2.685 5.251-5.485 3.784-22.947-12.056-53.45-13.36-78.825.138-2.593 1.383-5.297-1.403-5.297-3.824V132.57c0-2.693.037-7.319 2.742-11.426l45.243-64.992h-39.384c-2.414 0-4.352-1.693-4.352-4.194l.1-1.375zM63.78 132.65c0-3.58 1.026-6.485 2.867-8.578V92.66c0-6.043 3.79-10.169 9.228-10.169 4.847 0 9.18 3.743 9.18 9.786v19.522c6.606-1.732 14.183-3.06 22.7-3.06 7.854 0 15.906 1.328 22.513 3.06V92.277c0-6.043 3.884-9.404 9.228-9.404 4.846 0 9.18 3.361 9.18 9.404v31.412c1.841 2.093 2.867 4.998 2.867 8.578 0 11.616-9.655 22.142-23.836 28.627-7.294 3.359-15.62 5.07-24.156 5.07-7.76 0-14.89-1.328-21.424-3.936-14.651-5.834-24.347-16.63-24.347-28.38z" fill="#FFFFFF"/>
</svg> 