<?xml version="1.0" encoding="UTF-8"?>
<svg width="256" height="256" viewBox="0 0 256 256" xmlns="http://www.w3.org/2000/svg">
  <path fill="#FFFFFF" d="M128 0C57.308 0 0 57.308 0 128s57.308 128 128 128 128-57.308 128-128S198.692 0 128 0z"/>
  <path fill="#000000" d="M213.333 170.667c-5.333 0-10.133-1.067-14.4-3.2-13.867-6.4-24-20.267-35.2-36.8-8.533 14.933-16.533 29.867-32 41.6-8.533 6.4-18.133 9.6-27.733 9.6-21.333 0-41.067-17.067-41.067-42.667 0-24.533 19.2-42.667 42.667-42.667 5.333 0 10.667 1.067 15.467 3.2 13.867 6.4 24 20.267 35.2 36.8 8.533-14.933 16.533-29.867 32-41.6 8.533-6.4 18.133-9.6 27.733-9.6 21.333 0 41.067 17.067 41.067 42.667 0 24.533-19.733 42.667-43.733 42.667zM106.667 117.333c-14.933 0-26.667 11.733-26.667 26.667 0 14.933 12.267 26.667 26.667 26.667 5.333 0 10.667-1.6 15.467-5.333 11.733-9.067 18.133-21.333 25.6-34.133-8.533-13.333-16-24.533-26.133-29.333-4.267-1.067-9.067-2.133-14.933-2.133v17.467zM170.667 96c-5.333 0-10.667 1.6-15.467 5.333-11.733 9.067-18.133 21.333-25.6 34.133 8.533 13.333 16 24.533 26.133 29.333 4.267 2.133 9.067 2.667 14.933 2.667 14.933 0 26.667-11.733 26.667-26.667 0-14.933-11.733-26.667-26.667-26.667V96z"/>
</svg> 