<?xml version="1.0" encoding="UTF-8"?>
<svg width="256" height="256" viewBox="0 0 256 256" xmlns="http://www.w3.org/2000/svg">
  <path fill="#FFA000" d="M129.38 31.482l21.21 40.742 9.243-55.2c.456-2.737 4.005-3.555 5.462-1.258l48.292 153.103-36.018-92.9-8.935 33.364-13.928-35.24-25.325 21.132z"/>
  <path fill="#F57F17" d="M149.454 75.632L121.997 26.96a3.177 3.177 0 0 0-5.72 0L79.25 103.966l70.204-28.334z"/>
  <path fill="#FFCA28" d="M213.587 168.87l-48.292-153.104c-1.456-2.298-5.006-1.48-5.462 1.258l-9.243 55.2-21.21-40.742-25.325 21.132 13.928 35.24 8.935-33.364 36.018 92.9-70.204 28.333L47.49 168.87l32.487 74.138a8.856 8.856 0 0 0 7.683 4.51c.43 0 .872-.032 1.315-.097l119.402-22.906a8.858 8.858 0 0 0 7.135-6.657 8.857 8.857 0 0 0-1.925-7.988z"/>
  <path fill="#FFA000" d="M47.49 168.87l45.241-64.905L79.25 103.966z"/>
</svg> 