<?xml version="1.0" encoding="UTF-8"?>
<svg width="256" height="256" viewBox="0 0 256 256" xmlns="http://www.w3.org/2000/svg">
  <path fill="#EA4335" d="M178.145 42.123L120.58 23.01c-.992-.326-2.042-.42-3.086-.318-1.044.102-2.042.396-2.966.847L80.33 42.123c-1.863.914-3.215 2.596-3.724 4.635L64.63 84.184l.153-.229a6.953 6.953 0 0 1 2.37-2.444l77.778-45.29a7.071 7.071 0 0 1 7.117 0l45.085 26.005c1.096.636 2.017 1.51 2.713 2.546l.153.229-13.13-18.24a8.337 8.337 0 0 0-8.725-4.635v-.003z"/>
  <path fill="#4285F4" d="M226.983 94.124l-22.006-59.77a8.314 8.314 0 0 0-3.725-4.633l-45.084-26.005a7.068 7.068 0 0 0-7.117 0l-77.778 45.29a6.94 6.94 0 0 0-2.37 2.444l-14.77 22.16-13.284 19.965a8.42 8.42 0 0 0 .153 9.5l48.554 72.865c1.811 2.724 4.934 4.127 8.165 3.622h.153l7.732-1.275-7.885 1.275c-3.231.509-6.354-.898-8.165-3.622l-49.01-73.526a7.07 7.07 0 0 1 .153-7.978l28.513-42.794a6.74 6.74 0 0 1 2.255-2.154l77.87-45.29a5.917 5.917 0 0 1 5.941 0l45.085 26.005a6.92 6.92 0 0 1 3.113 3.867l22.006 59.77a7.063 7.063 0 0 1-2.598 8.236l-45.086 26.004a5.914 5.914 0 0 1-5.94 0l-20.015-11.555a6.76 6.76 0 0 1-2.255-2.155 6.95 6.95 0 0 1-2.37-2.444c-1.863-3.139-6.354-3.623-9.279-1.02l-15.308 13.71c-2.964 2.582-7.5 2.11-9.355-1.047l-8.164-13.9c-1.856-3.113-6.378-3.571-9.28-1.02l-28.513 25.292 28.513-25.288c2.926-2.604 7.417-2.065 9.28 1.02l8.164 13.897c1.85 3.156 6.39 3.63 9.355 1.048l15.308-13.71c2.925-2.603 7.416-2.07 9.28 1.02 1.839 3.138 6.353 3.622 9.278 1.02l20.014-17.765c2.964-2.603 7.499-2.11 9.355 1.048l25.731 43.836a8.42 8.42 0 0 0 8.725 3.621l22.007-3.621a8.407 8.407 0 0 0 6.354-6.038v-.53a8.338 8.338 0 0 0-.153-4.628l-15.001-40.751a7.063 7.063 0 0 1 2.598-8.236h-.001z"/>
  <path fill="#34A853" d="M161.66 183.42l-42.004 69.244c-1.812 2.724-4.934 4.127-8.165 3.622l-72.865-11.555a8.408 8.408 0 0 1-6.354-6.038 8.39 8.39 0 0 1 1.2-6.851l42.005-69.244 28.513-25.288-27.303 24.606c-2.926 2.603-3.377 7.142-.806 10.265l32.085 52.846a5.932 5.932 0 0 0 6.201 2.75l49.3-8.113a6.95 6.95 0 0 0 5.277-4.61c1.856-3.137 6.354-3.621 9.28-1.02l15.001 13.353c2.925 2.603 7.416 2.082 9.279-1.02l.229-.367-32.094-18.24c-2.964-1.7-4.664-5.008-3.782-8.385l.153-.763-5.15-25.991z"/>
  <path fill="#FBBC05" d="M77.476 169.548l-42.004 69.244a8.328 8.328 0 0 1-7.195 4.094 8.282 8.282 0 0 1-2.22-.304l-15.001-40.751a8.41 8.41 0 0 1 1.204-6.852l48.554-72.865 13.283-19.966 14.77-22.16-28.512 42.794a7.067 7.067 0 0 0-.153 7.978l49.01 73.526c1.81 2.724 4.934 4.127 8.164 3.622l7.885-1.275-19.488 3.234a8.335 8.335 0 0 1-8.725-3.624l-19.572-36.7z"/>
</svg> 