<?xml version="1.0" encoding="UTF-8"?>
<svg width="256" height="256" viewBox="0 0 256 256" xmlns="http://www.w3.org/2000/svg">
  <path fill="#E535AB" d="M152.576 32.963l59.146 34.895a25.819 25.819 0 0 1 5.285-4.305c7.01-4.165 15.68-5.25 23.56-1.311 7.554 3.736 13.58 12.155 13.58 21.095 0 9.211-6.369 17.85-14.237 21.635-7.881 3.794-17.76 2.834-24.74-1.75-4.24-2.783-7.123-7.53-7.938-13.663v74.279c.803-6.031 3.67-10.772 7.89-13.547 7.026-4.604 16.945-5.579 24.84-1.758 7.929 3.804 14.296 12.462 14.296 21.698 0 8.997-6.28 17.97-14.16 21.845-7.73 3.81-18.014 2.886-24.963-1.939a25.796 25.796 0 0 1-5.46-4.595l-59.568 34.97a25.75 25.75 0 0 1 1.085 7.667c0 9.213-6.376 17.873-14.25 21.65-7.883 3.79-17.776 2.834-24.762-1.757-7.007-4.36-12.086-12.993-12.086-21.65 0-8.935 5.08-17.564 12.066-21.928 6.837-4.264 16.04-5.363 23.926-1.803l59.326-34.875c-1.346-2.487-2.05-5.292-2.05-8.14 0-2.602.58-5.162 1.67-7.497L84.273 82.97c-1.13.238-2.285.362-3.445.362a25.43 25.43 0 0 1-9.62-1.931c-6.835-4.256-12.075-12.89-12.075-21.875 0-8.658 5.075-17.346 12.064-21.718 6.837-4.264 16.038-5.366 23.926-1.803L154.433 2.09c-.43-1.317-.648-2.682-.648-4.067 0-8.99 6.282-17.963 14.162-21.846 7.724-3.809 18.055-2.867 25.012 1.95 6.95 4.813 11.88 13.245 11.88 21.846 0 8.889-5.064 17.397-12.093 21.752-6.88 4.26-15.71 5.381-23.56 2.094 0 0-58.469 34.338-58.61 34.145zm47.888 149.115l-60.522-35.328a25.779 25.779 0 0 1-3.127 3.61c-7.11 6.335-17.223 8.195-26.044 3.654-8.735-4.374-15.038-14.546-15.038-25.1 0-10.587 6.223-20.768 15.116-25.094 8.87-4.498 19.108-2.589 26.198 3.727.848.734 1.646 1.525 2.395 2.359l60.148-35.177a25.904 25.904 0 0 1-.419-4.7c0-10.705 6.262-21.008 15.093-25.335 8.824-4.427 19.154-2.562 26.246 3.753 7.112 6.335 10.356 16.753 10.356 26.235 0 9.426-3.244 19.798-10.3 26.182-7.108 6.337-17.248 8.197-26.048 3.697a25.849 25.849 0 0 1-3.454-1.956l-60.306 35.213c.153 1.242.231 2.493.231 3.75 0 1.293-.083 2.577-.248 3.842l60.503 35.313c.097-.087.193-.175.293-.26 7.086-6.297 17.13-8.148 25.97-3.631 8.777 4.407 15.073 14.602 15.073 25.167 0 10.539-6.233 20.71-15.126 25.080-8.823 4.475-19.157 2.55-26.235-3.764-5.463-4.876-8.726-12.292-9.923-19.89l-59.92-34.987c-7.078 6.298-17.13 8.147-25.973 3.633-8.775-4.403-15.068-14.605-15.068-25.17 0-10.537 6.228-20.703 15.12-25.078 8.822-4.474 19.154-2.55 26.235 3.773 2.297 2.052 4.175 4.586 5.646 7.492z"/>
  <path fill="#E535AB" d="M60.366 142.567a7.98 7.98 0 0 1 1.402-4.533l-55.786-97.058a7.693 7.693 0 0 0-4.336 6.893c0 2.855 1.552 5.367 3.864 6.704l48.287 83.863c1.54-1.162 3.775-1.295 5.94-1.295h.629zm135.268 0c0-1.58.453-3.153 1.403-4.533l55.784-97.058a7.69 7.69 0 0 0-4.335-6.893 7.92 7.92 0 0 0-3.864 6.704l-48.287 83.863c1.542-1.162 3.775-1.295 5.94-1.295h.63a7.986 7.986 0 0 1-7.271 19.212zm-75.328 29.66c-.554 0-.918-.066-1.291-.066l-57.035 98.714c2.077 1.215 4.609 1.215 6.685 0l55.883-97.05a32.885 32.885 0 0 1-4.242-1.598zm22.425-7.92L196.8 65.311a8.025 8.025 0 0 0-6.697-3.855 7.922 7.922 0 0 0-6.697 3.89l-54.59 95.51c1.861.795 3.775 1.492 5.642 2.354l54.3-94.781-54.826 95.31a31.883 31.883 0 0 1 3.099 4.568zm57.152-136.574L142.913 125.33c1.861.794 3.72 1.826 5.322 3.022l55.532-96.272a8.07 8.07 0 0 0-3.909-1.64l.025-.728zm-103.999 3.92a8.214 8.214 0 0 0-3.909 1.598l55.532 96.234c1.861-.795 3.72-1.6 5.321-2.421L96.884 27.653zm-12.075 150.33l-55.533-96.235a7.915 7.915 0 0 0-3.909 1.598L81.9 179.617c1.861-.795 3.72-1.598 5.322-2.42l-55.532-96.274 59.797 102.975a32.392 32.392 0 0 1-8.777-9.686zM78.948 56.785c-3.168-5.477-10.086-7.53-15.447-4.569-5.361 2.962-7.053 9.859-4.13 15.33 3.168 5.476 10.086 7.53 15.447 4.568 5.362-2.96 7.054-9.859 4.13-15.33zM60.366 142.567c-3.14-5.513-10.088-7.599-15.447-4.6-5.361 2.962-7.053 9.859-4.13 15.33 3.168 5.476 10.086 7.53 15.447 4.568 5.362-2.96 7.054-9.859 4.13-15.298zm2.421 71.283c-3.168-5.477-10.086-7.53-15.447-4.569-5.361 2.962-7.053 9.859-4.13 15.33 3.168 5.476 10.086 7.53 15.447 4.569 5.362-2.962 7.054-9.86 4.13-15.33zm132.847-71.283c-3.168-5.477-10.086-7.53-15.447-4.569-5.36 2.962-7.054 9.859-4.13 15.33 3.17 5.476 10.088 7.53 15.448 4.568 5.361-2.96 7.054-9.859 4.13-15.33zm-2.42 71.283c-3.17-5.477-10.088-7.53-15.448-4.569-5.361 2.962-7.054 9.859-4.13 15.33 3.168 5.476 10.086 7.53 15.447 4.569 5.361-2.962 7.054-9.86 4.13-15.33zm2.42-142.567c-3.17-5.477-10.088-7.53-15.448-4.569-5.361 2.962-7.054 9.86-4.13 15.33 3.168 5.477 10.086 7.53 15.447 4.569 5.361-2.961 7.054-9.859 4.13-15.33zM120.142 32.433c0-6.3-5.114-11.422-11.422-11.422-6.309 0-11.423 5.122-11.423 11.422 0 6.3 5.114 11.423 11.423 11.423 6.308 0 11.422-5.123 11.422-11.423zm0 190.134c0-6.3-5.114-11.423-11.422-11.423-6.309 0-11.423 5.123-11.423 11.423s5.114 11.422 11.423 11.422c6.308 0 11.422-5.122 11.422-11.422zm26.97-95.067c0-6.3-5.114-11.423-11.423-11.423s-11.423 5.123-11.423 11.423c0 6.3 5.114 11.422 11.423 11.422s11.422-5.122 11.422-11.422z"/>
</svg> 