<?xml version="1.0" encoding="UTF-8"?>
<svg width="256" height="256" viewBox="0 0 256 256" xmlns="http://www.w3.org/2000/svg">
  <rect width="256" height="256" rx="16" fill="#6366F1"/>
  <circle cx="64" cy="64" r="24" fill="#FFFFFF"/>
  <circle cx="192" cy="64" r="24" fill="#FFFFFF"/>
  <circle cx="64" cy="192" r="24" fill="#FFFFFF"/>
  <circle cx="192" cy="192" r="24" fill="#FFFFFF"/>
  <circle cx="128" cy="128" r="32" fill="#FFFFFF"/>
  <path stroke="#FFFFFF" stroke-width="6" d="M64 64l64 64M192 64l-64 64M64 192l64-64M192 192l-64-64"/>
  <circle cx="64" cy="64" r="12" fill="#6366F1"/>
  <circle cx="192" cy="64" r="12" fill="#6366F1"/>
  <circle cx="64" cy="192" r="12" fill="#6366F1"/>
  <circle cx="192" cy="192" r="12" fill="#6366F1"/>
  <circle cx="128" cy="128" r="16" fill="#6366F1"/>
  <path d="M128 128l-24-48h48l-24 48z" fill="#FFFFFF"/>
  <path d="M128 128l24 48h-48l24-48z" fill="#FFFFFF"/>
</svg> 