<?xml version="1.0" encoding="UTF-8"?>
<svg width="256" height="256" viewBox="0 0 256 256" xmlns="http://www.w3.org/2000/svg">
  <rect width="256" height="256" rx="10" fill="#10a37f"/>
  <path d="M108.454 49.608l-69.61 120.542c-5.4 9.351.345 21.069 11.119 21.069h139.221c10.774 0 16.518-11.718 11.119-21.07l-69.611-120.54c-5.4-9.351-16.838-9.351-22.238 0z" fill="#FFFFFF"/>
  <circle cx="128" cy="142" r="32" fill="#10a37f"/>
  <path d="M128 174c-17.673 0-32-14.327-32-32 0-17.673 14.327-32 32-32 17.673 0 32 14.327 32 32 0 17.673-14.327 32-32 32zm0-12c11.046 0 20-8.954 20-20s-8.954-20-20-20-20 8.954-20 20 8.954 20 20 20z" fill="#FFFFFF"/>
  <path stroke="#10a37f" stroke-width="8" d="M78 197l97-138M78 60l97 137"/>
</svg> 