<?xml version="1.0" encoding="UTF-8"?>
<svg width="256" height="256" viewBox="0 0 256 256" xmlns="http://www.w3.org/2000/svg">
  <path fill="#E0234E" d="M153.725 104.673c-.06-.97-1.04-1.702-1.967-1.278-.493.229-.8.731-.733 1.282.076.544.526.969 1.076 1.016.732.047 1.375-.31 1.624-1.02zm-2.197 2.113c-.06-.97-1.04-1.702-1.967-1.278-.493.229-.8.731-.733 1.282.076.544.526.969 1.076 1.016.732.047 1.375-.31 1.624-1.02zm-2.095 2.58c-.06-.97-1.04-1.702-1.967-1.278-.493.229-.8.731-.733 1.282.076.544.526.969 1.076 1.016.732.047 1.375-.31 1.624-1.02zm-1.5 2.746c-.06-.97-1.04-1.702-1.967-1.278-.493.229-.8.731-.733 1.282.076.544.526.969 1.076 1.016.732.047 1.375-.31 1.624-1.02zm-1.362 2.491c-.06-.97-1.04-1.702-1.967-1.278-.493.229-.8.731-.733 1.282.076.544.526.969 1.076 1.016.732.047 1.375-.31 1.624-1.02zm-1.04 2.994c-.06-.97-1.04-1.702-1.967-1.278-.493.229-.8.731-.733 1.282.076.544.526.969 1.076 1.016.732.047 1.375-.31 1.624-1.02z"/>
  <path fill="#E0234E" d="M128.054 0C59.222 0 3.115 57.01 3.115 126.981a126.815 126.815 0 0 0 27.539 78.96l5.542-4.637c3.161-2.7 6.742-3.44 10.34-2.235 3.827 1.234 6.758 4.146 8.113 8.058.91 2.54.858 5.136-.064 7.696-1.206 3.351-3.579 5.813-6.822 7.004l-9.583 3.222a126.948 126.948 0 0 0 29.543 21.928l3.537-8.969c1.326-3.346 3.902-5.676 7.307-6.639 2.422-.658 4.89-.557 7.26.24 3.767 1.289 6.655 4.185 7.983 7.933.835 2.417.84 4.888.078 7.296l-3.006 9.62C104.075 253.451 115.935 256 128.054 256c13.293 0 26.37-2.978 40.103-8.585l-3.375-10.758c-.869-2.702-.64-5.479.652-7.97 1.333-2.627 3.579-4.623 6.38-5.548 2.36-.775 4.818-.802 7.16-.062 3.667 1.136 6.475 3.886 7.78 7.653l3.22 9.56c11.255-7.798 20.979-17.399 28.59-28.387l-9.89-3.347c-2.6-.817-4.594-2.728-5.682-5.362-1.043-2.566-1.05-5.25-.137-7.76 1.262-3.552 4.065-6.158 7.752-7.195 2.531-.71 5.107-.59 7.524.393a10.45 10.45 0 0 1 2.682 1.525l6.028 5.035a126.935 126.935 0 0 0 24.65-76.174c-.011-69.96-56.111-126.97-124.937-126.97zm30.311 197.194c-55.124 0-99.974-17.566-99.974-39.201 0-12.008 12.378-22.55 31.52-30.018-19.486-33.077 34.572-69.827 41.32-30.610 17.334-5.622 37.362-8.584 59.126-8.584 35.058 0 65.86 6.903 83.663 17.364 18.416 10.764 22.108 23.674 16.305 36.84 19.796 7.315 32.62 17.95 32.62 30.158 0 21.635-44.854 39.201-99.979 39.201-20.9 0-40.206-2.513-55.865-6.73-5.96 2.825-14.244 6.553-14.244 6.553-9.857 4.051-9.828-1.806-8.843-4.634.911-2.768 1.272-4.146 1.272-4.146s7.292-1.301 12.203-2.341c-14.258-4.479-25.071-10.324-32.03-17.1-4.743 2.218-7.42 4.663-7.42 7.246 0 11.126 36.7 20.14 82.152 20.14s82.148-9.014 82.148-20.14c0-11.12-36.695-20.14-82.148-20.14-16.455 0-31.777 1.41-44.498 3.826-9.332-8.896-9.5-18.847-.35-29.486 3.513-4.094 3.584-6.213 1.478-7.187-1.45-.696-3.876-.47-7.082.81-33.352 13.46-14.506 47.186 17.025 55.943-8.506.943-16.008 2.182-22.258 3.697 51.444 11.129 118.297-9.009 116.855-46.513-1.093-28.35-54.632-39.578-119.924-25.068-26.32 5.825-50.6 15.343-67.253 26.88-.344.232-.67.467-1.001.7-7.257 5.26-28.931 22.765-22.137 37.084-22.693 9.233-36.938 22.06-36.938 36.232 0 30.532 54.156 55.139 120.976 55.139 66.824 0 120.976-24.607 120.976-55.14.005-28.306-46.555-51.784-107.297-54.883z"/>
</svg> 