<?xml version="1.0" encoding="UTF-8"?>
<svg width="256" height="256" viewBox="0 0 256 256" xmlns="http://www.w3.org/2000/svg">
  <path fill="#336791" d="M128 0C57.308 0 0 57.308 0 128s57.308 128 128 128 128-57.308 128-128S198.692 0 128 0z"/>
  <path fill="#FFFFFF" d="M131.09 61.476c-40.128 0-61.876 20.473-61.876 47.04 0 16.304 6.14 27.442 17.652 33.116-1.448 4.342-3.45 8.308-6.024 11.7-2.73 3.396-6.024 6.152-9.87 8.056-3.844 1.904-8.178 2.856-12.94 2.856-.542 0-1.084-.012-1.614-.04-8.96-.464-16.932-4.996-16.932-11.16 0-2.66 1.772-5.224 5.31-7.424 2.242-1.39 4.25-2.032 6.024-1.932.458.024.804.132 1.044.324.254.212.386.54.386.984 0 .78-.688 1.876-2.064 3.284-1.376 1.408-2.064 2.452-2.064 3.128a2.27 2.27 0 0 0 .704 1.66c.47.46 1.026.692 1.66.692 1.916 0 4.636-1.408 8.16-4.22 3.528-2.816 6.208-6.344 8.04-10.584 1.832-4.236 2.748-8.764 2.748-13.592 0-4.828-1.132-8.836-3.392-12.02-2.26-3.188-5.28-4.78-9.052-4.78-2.416 0-4.912.748-7.498 2.248-2.582 1.5-4.648 3.304-6.198 5.416-.23.338-.516.508-.862.508-.488 0-.906-.374-1.254-1.128-.35-.749-.524-1.648-.524-2.688 0-4.492 2.848-8.76 8.546-12.8 5.698-4.044 12.294-6.064 19.782-6.064 9.872 0 16.864 2.232 20.974 6.692 4.11 4.464 6.168 9.996 6.168 16.596s-2.15 12.132-6.452 16.596c-4.3 4.464-9.58 6.692-15.838 6.692-2.084 0-3.916-.256-5.494-.768 3.374-2.204 6.122-4.932 8.248-8.188 3.374-5.124 5.06-10.864 5.06-17.22 0-6.36-1.866-11.596-5.6-15.704-3.732-4.108-8.724-6.164-14.97-6.164-5.412 0-10.132 1.628-14.158 4.884-4.026 3.256-6.04 7.256-6.04 12 0 3.832 1.41 7.072 4.228 9.72 2.818 2.652 6.406 3.976 10.762 3.976 2.872 0 5.222-.54 7.042-1.628 1.82-1.084 2.73-2.4 2.73-3.944 0-.7-.27-1.288-.804-1.768-.54-.472-1.18-.712-1.908-.712-1.944 0-3.474.844-4.586 2.536-1.112 1.692-1.668 3.652-1.668 5.88 0 2.224.712 4.052 2.13 5.48 1.422 1.432 3.332 2.148 5.732 2.148 2.96 0 5.504-1.064 7.624-3.184 2.12-2.124 3.18-4.676 3.18-7.66 0-3.756-1.638-6.9-4.91-9.432-3.374-2.536-7.732-3.804-13.07-3.804-6.82 0-12.568 2.04-17.248 6.128-4.68 4.084-7.02 9.432-7.02 16.04 0 6.604 2.242 12.088 6.726 16.448 4.488 4.36 10.19 6.54 17.114 6.54 4.8 0 9.362-1.08 13.694-3.244 4.332-2.16 7.898-5.304 10.704-9.432 2.802-4.124 4.204-8.824 4.204-14.096 0-6.544-2.252-12.016-6.752-16.412-4.504-4.4-10.216-6.6-17.142-6.6zm68.856 22.968c-5.484 0-10.2 1.364-14.158 4.092a25.042 25.042 0 0 0-8.874 11.008c-1.972 4.604-2.958 9.536-2.958 14.796 0 5.256.986 10.188 2.958 14.792 1.972 4.608 4.98 8.372 9.02 11.288 4.04 2.92 8.72 4.38 14.044 4.38 10.796 0 18.068-5.352 21.816-16.064l-12.188-2.932c-1.516 4.768-4.76 7.152-9.74 7.152-2.976 0-5.404-1.224-7.28-3.676-1.876-2.452-2.822-6.26-2.846-11.428h33.394v-3.376c0-6.736-1.924-12.064-5.776-15.976-3.85-3.908-9.454-5.86-16.816-5.856h.404zm-16.956 21.324c.536-3.52 1.7-6.172 3.498-7.956 1.796-1.784 3.918-2.676 6.366-2.676 2.62 0 4.724.884 6.312 2.652 1.588 1.768 2.438 4.428 2.548 7.98h-18.724zM92.492 64.016h.052l-.052-.116v.116z"/>
</svg> 