<?xml version="1.0" encoding="UTF-8"?>
<svg width="256" height="256" viewBox="0 0 256 256" xmlns="http://www.w3.org/2000/svg">
  <circle cx="128" cy="128" r="128" fill="#4F46E5"/>
  <path fill="#FFFFFF" d="M128 64c35.346 0 64 28.654 64 64 0 35.346-28.654 64-64 64-35.346 0-64-28.654-64-64 0-35.346 28.654-64 64-64zm0 16c-26.51 0-48 21.49-48 48s21.49 48 48 48 48-21.49 48-48-21.49-48-48-48z"/>
  <circle cx="64" cy="64" r="16" fill="#FFFFFF"/>
  <circle cx="64" cy="192" r="16" fill="#FFFFFF"/>
  <circle cx="192" cy="64" r="16" fill="#FFFFFF"/>
  <circle cx="192" cy="192" r="16" fill="#FFFFFF"/>
  <path stroke="#FFFFFF" stroke-width="4" d="M64 64l64 64M64 192l64-64M192 64l-64 64M192 192l-64-64"/>
</svg> 